<?xml version="1.0" encoding="utf-8"?>
<!-- Generator: Adobe Illustrator 21.1.0, SVG Export Plug-In . SVG Version: 6.00 Build 0)  -->
<svg version="1.1" id="GM_Material" xmlns="http://www.w3.org/2000/svg" xmlns:xlink="http://www.w3.org/1999/xlink" x="0px"
	 y="0px" width="24px" height="24px" viewBox="0 0 24 24" enable-background="new 0 0 24 24" xml:space="preserve" fill="#b33">
<g>
	<polygon points="14.59,8 12,10.59 9.41,8 8,9.41 10.59,12 8,14.59 9.41,16 12,13.41 14.59,16 16,14.59 13.41,12 16,9.41 	"/>
	<path d="M12,2C6.47,2,2,6.47,2,12c0,5.53,4.47,10,10,10s10-4.47,10-10C22,6.47,17.53,2,12,2z M12,20c-4.41,0-8-3.59-8-8
		c0-4.41,3.59-8,8-8s8,3.59,8,8C20,16.41,16.41,20,12,20z"/>
</g>
<path fill="none" d="M0,0h24v24H0V0z"/>
</svg>
